<svg xmlns="http://www.w3.org/2000/svg" width="1200" height="630" viewBox="0 0 1200 630" fill="none">
  <rect width="1200" height="630" fill="#030712"/>
  
  <!-- Subtle Background Gradients -->
  <circle cx="200" cy="150" r="300" fill="#06b6d4" fill-opacity="0.12" filter="blur(80px)" />
  <circle cx="1000" cy="450" r="350" fill="#4f46e5" fill-opacity="0.15" filter="blur(100px)" />
  <circle cx="600" cy="300" r="250" fill="#10b981" fill-opacity="0.08" filter="blur(90px)" />

  <!-- Grid Lines -->
  <g stroke="#ffffff" stroke-opacity="0.04" stroke-width="1">
    <path d="M0 100 H1200 M0 200 H1200 M0 300 H1200 M0 400 H1200 M0 500 H1200" />
    <path d="M200 0 V630 M400 0 V630 M600 0 V630 M800 0 V630 M1000 0 V630" />
  </g>

  <!-- Border Card -->
  <rect x="50" y="50" width="1100" height="530" rx="24" fill="#0f172a" fill-opacity="0.6" stroke="#1e293b" stroke-width="2" />

  <!-- Badge Pill -->
  <rect x="100" y="110" width="380" height="40" rx="20" fill="#1e293b" stroke="#06b6d4" stroke-opacity="0.4" stroke-width="1" />
  <text x="125" y="135" fill="#38bdf8" font-family="monospace" font-size="14" font-weight="bold" letter-spacing="1">DBIT MUMBAI • SYSTEMS &amp; SOFTWARE</text>

  <!-- Main Headline -->
  <text x="100" y="240" fill="#ffffff" font-family="sans-serif" font-size="56" font-weight="800">Aryan Shukla</text>
  <text x="100" y="310" fill="#38bdf8" font-family="sans-serif" font-size="38" font-weight="700">Systems &amp; Software Developer</text>

  <!-- Tagline -->
  <text x="100" y="375" fill="#94a3b8" font-family="sans-serif" font-size="22" font-weight="400">Offline AI Agent Loops • 60 FPS Canvas Physics Engines • Express Caching</text>

  <!-- Feature Pills -->
  <g font-family="sans-serif" font-size="14" font-weight="600">
    <!-- Pill 1 -->
    <rect x="100" y="440" width="200" height="44" rx="12" fill="#030712" stroke="#06b6d4" stroke-opacity="0.3" />
    <text x="130" y="467" fill="#38bdf8">Meridian-X Desktop</text>

    <!-- Pill 2 -->
    <rect x="320" y="440" width="220" height="44" rx="12" fill="#030712" stroke="#6366f1" stroke-opacity="0.3" />
    <text x="350" y="467" fill="#818cf8">AI Knowledge Graph</text>

    <!-- Pill 3 -->
    <rect x="560" y="440" width="180" height="44" rx="12" fill="#030712" stroke="#10b981" stroke-opacity="0.3" />
    <text x="590" y="467" fill="#34d399">InvestIQ Engine</text>
  </g>

  <!-- Website Link Footer -->
  <text x="1000" y="520" fill="#64748b" font-family="monospace" font-size="16" text-anchor="end">portfolio-aryan.pages.dev</text>
</svg>
